<?xml version="1.0" encoding="UTF-8"?>
<svg xmlns="http://www.w3.org/2000/svg" viewBox="0 0 172.75 32">
  <defs>
    <style>
      .cls-1 {
        fill-rule: evenodd;
      }

      .cls-1, .cls-2 {
        fill: rgba(255, 255, 255, .6);
      }

      .cls-3 {
        isolation: isolate;
      }

      .cls-4 {
        fill: #fff;
      }

      .cls-5 {
        fill: #1068c9;
      }

      .cls-6 {
        fill: #0b3058;
      }

      .cls-2 {
        mix-blend-mode: screen;
      }
    </style>
  </defs>
  <g class="cls-3">
    <g id="Ebene_1">
      <g id="MKContentAI_Logo">
        <g id="Logo-MK-ContentAI">
          <g id="Bildteil">
            <circle id="Oval" class="cls-5" cx="16" cy="16" r="16"/>
          </g>
          <g id="txt">
            <path id="Path" class="cls-5" d="M59.37,16.98h0c.72.5,1.44,1.09,2.18,1.77.74.68,1.45,1.4,2.14,2.16.69.75,1.35,1.54,1.97,2.35.63.81,1.18,1.58,1.66,2.32h4.11c-.59-.96-1.24-1.92-1.95-2.89-.71-.97-1.45-1.9-2.22-2.79-.77-.89-1.56-1.73-2.36-2.51-.8-.78-1.59-1.47-2.36-2.06.7-.68,1.41-1.4,2.14-2.16.73-.75,1.45-1.51,2.17-2.28.72-.76,1.42-1.52,2.1-2.28.68-.75,1.33-1.48,1.93-2.18h-4.17c-.48.53-1.01,1.13-1.6,1.79-.59.66-1.21,1.35-1.86,2.06-.65.71-1.31,1.41-1.97,2.1-.64.67-1.25,1.29-1.84,1.88-.02.02-.26.24-.26.24v-.07h0v-.03c-.09-1.19-.2-2.37-.31-3.52-.15-1.57-.31-3.06-.48-4.46h-3.13c-.41.7-.85,1.56-1.35,2.57-.5,1.01-1,2.08-1.51,3.19-.52,1.12-1.02,2.24-1.51,3.4-.5,1.15-.96,2.21-1.38,3.19-.42-.97-.89-2.04-1.39-3.19-.51-1.15-1.02-2.28-1.53-3.4-.52-1.12-1.02-2.18-1.51-3.19-.5-1.01-.95-1.87-1.35-2.57h-3.21c-.17,1.33-.33,2.77-.48,4.33-.15,1.57-.29,3.18-.41,4.85-.12,1.67-.23,3.35-.34,5.04-.1,1.69-.19,3.33-.27,4.92h3.42c.07-2.23.16-4.52.27-6.88.1-2.35.26-4.64.46-6.85.2.41.44.91.72,1.5.28.6.57,1.24.88,1.92.31.68.63,1.39.95,2.13.32.74.63,1.45.94,2.14.3.69.59,1.34.84,1.95.26.61.48,1.12.66,1.55h2.59c.18-.42.41-.93.66-1.53.26-.6.54-1.24.84-1.93.3-.69.62-1.4.94-2.14.32-.74.64-1.45.95-2.14.31-.69.61-1.33.88-1.92.28-.59.52-1.09.72-1.52.21,2.21.36,4.49.46,6.85.1,2.36.19,4.65.27,6.88h3.42c-.07-1.58-.16-3.21-.27-4.88l-.24-3.7Z"/>
          </g>
        </g>
      </g>
      <g>
        <path class="cls-6" d="M83.03,26.17c-1.46,0-2.76-.22-3.92-.67s-2.14-1.11-2.94-1.97c-.8-.87-1.42-1.93-1.85-3.18-.43-1.25-.64-2.69-.64-4.31s.25-3.06.74-4.31c.49-1.25,1.17-2.31,2.03-3.18.86-.87,1.87-1.53,3.02-1.97,1.16-.45,2.4-.67,3.72-.67.8,0,1.53.06,2.18.18s1.22.26,1.71.41.89.31,1.2.48.54.29.67.36l-1.04,2.88c-.45-.28-1.09-.55-1.92-.8-.83-.25-1.73-.38-2.7-.38-.84,0-1.62.14-2.35.43-.73.29-1.36.72-1.89,1.3-.53.58-.95,1.31-1.25,2.18-.3.88-.45,1.89-.45,3.05,0,1.03.12,1.97.35,2.83.23.86.59,1.6,1.08,2.23.48.63,1.1,1.11,1.85,1.46.75.35,1.64.52,2.69.52,1.25,0,2.27-.13,3.05-.38.78-.25,1.39-.49,1.82-.71l.95,2.88c-.22.15-.53.3-.91.45-.38.15-.84.29-1.36.43-.52.14-1.11.25-1.76.34s-1.35.13-2.1.13Z"/>
        <path class="cls-6" d="M97.2,26.03c-1.01-.02-1.84-.13-2.51-.34-.66-.21-1.19-.5-1.58-.88-.39-.38-.67-.86-.83-1.43-.16-.57-.24-1.22-.24-1.95V4.58l3.39-.56v16.77c0,.41.03.76.1,1.04s.18.52.35.71.4.35.69.45c.29.1.66.18,1.11.24l-.48,2.8Z"/>
        <path class="cls-6" d="M99.61,18.5c0-1.29.19-2.42.57-3.39.38-.97.89-1.78,1.53-2.42.63-.64,1.36-1.13,2.18-1.46.82-.33,1.66-.49,2.52-.49,2.02,0,3.59.62,4.72,1.88,1.13,1.25,1.69,3.12,1.69,5.6,0,.19,0,.4-.01.63,0,.23-.02.44-.04.63h-9.66c.09,1.18.51,2.09,1.25,2.73s1.81.97,3.21.97c.82,0,1.57-.07,2.25-.22.68-.15,1.22-.31,1.61-.48l.45,2.77c-.19.09-.45.19-.77.29-.33.1-.7.2-1.12.28s-.87.15-1.36.21c-.49.06-.98.08-1.48.08-1.29,0-2.41-.19-3.36-.57s-1.74-.91-2.35-1.6c-.62-.68-1.07-1.48-1.37-2.41-.3-.92-.45-1.94-.45-3.04ZM109.44,16.99c0-.47-.07-.91-.2-1.33s-.32-.78-.57-1.09c-.25-.31-.56-.55-.92-.73-.36-.18-.8-.27-1.3-.27s-.98.1-1.37.29c-.39.2-.72.45-.99.77s-.48.68-.63,1.09c-.15.41-.25.83-.31,1.26h6.3Z"/>
        <path class="cls-6" d="M121.28,10.74c1.12,0,2.06.14,2.83.42.76.28,1.38.67,1.83,1.18.46.5.78,1.12.98,1.83.2.72.29,1.51.29,2.37v8.88c-.52.11-1.31.25-2.37.41s-2.24.24-3.57.24c-.88,0-1.68-.08-2.41-.25-.73-.17-1.35-.44-1.86-.81s-.92-.86-1.2-1.46-.43-1.33-.43-2.21.16-1.55.49-2.13c.33-.58.77-1.05,1.33-1.41.56-.36,1.21-.62,1.95-.78.74-.16,1.51-.24,2.31-.24.37,0,.76.02,1.18.07.41.05.85.13,1.32.24v-.56c0-.39-.05-.76-.14-1.12-.09-.35-.26-.67-.49-.94s-.54-.48-.92-.63-.86-.22-1.44-.22c-.78,0-1.5.06-2.16.17-.65.11-1.19.24-1.6.39l-.42-2.74c.43-.15,1.05-.3,1.88-.45.82-.15,1.7-.22,2.63-.22ZM121.56,23.37c1.05,0,1.84-.06,2.38-.17v-3.75c-.19-.06-.46-.11-.81-.17-.35-.06-.75-.08-1.18-.08-.37,0-.75.03-1.13.08-.38.06-.73.16-1.04.31-.31.15-.56.36-.74.63-.19.27-.28.61-.28,1.02,0,.8.25,1.36.76,1.67.5.31,1.19.46,2.04.46Z"/>
        <path class="cls-6" d="M131.36,11.58c.65-.19,1.5-.36,2.55-.53,1.04-.17,2.2-.25,3.47-.25,1.19,0,2.19.16,3,.49.8.33,1.44.78,1.92,1.37.48.59.81,1.3,1.01,2.13.2.83.29,1.74.29,2.73v8.23h-3.39v-7.7c0-.78-.05-1.45-.15-2-.1-.55-.27-1-.5-1.34s-.55-.6-.95-.76-.89-.24-1.47-.24c-.43,0-.88.03-1.34.08-.47.06-.81.1-1.04.14v11.82h-3.39v-14.17Z"/>
        <path class="cls-6" d="M146.93,18.5c0-1.29.19-2.42.57-3.39s.89-1.78,1.53-2.42c.63-.64,1.36-1.13,2.18-1.46.82-.33,1.66-.49,2.52-.49,2.02,0,3.59.62,4.72,1.88,1.13,1.25,1.69,3.12,1.69,5.6,0,.19,0,.4-.01.63,0,.23-.02.44-.04.63h-9.66c.09,1.18.51,2.09,1.25,2.73s1.81.97,3.21.97c.82,0,1.57-.07,2.25-.22s1.22-.31,1.61-.48l.45,2.77c-.19.09-.44.19-.77.29-.33.1-.7.2-1.12.28s-.87.15-1.36.21c-.49.06-.98.08-1.48.08-1.29,0-2.41-.19-3.36-.57-.95-.38-1.74-.91-2.35-1.6s-1.07-1.48-1.37-2.41-.45-1.94-.45-3.04ZM156.76,16.99c0-.47-.07-.91-.2-1.33s-.32-.78-.57-1.09c-.25-.31-.56-.55-.92-.73-.36-.18-.8-.27-1.3-.27s-.98.1-1.37.29c-.39.2-.72.45-.99.77s-.48.68-.63,1.09c-.15.41-.25.83-.31,1.26h6.3Z"/>
        <path class="cls-6" d="M172.07,14.16c-.28-.09-.67-.19-1.16-.29-.5-.1-1.07-.15-1.72-.15-.37,0-.77.04-1.19.11s-.71.14-.88.2v11.73h-3.39v-13.94c.65-.24,1.47-.47,2.45-.69.98-.21,2.07-.32,3.26-.32.22,0,.49.01.78.04.3.03.6.07.9.11s.59.1.87.17.5.13.67.18l-.59,2.86Z"/>
      </g>
      <g>
        <path class="cls-1" d="M15.94,19.47c4.82,0,8.68-1.13,8.68-1.13.43,0,.78-.32.78-.72v-2.87c0-.4-.35-.72-.78-.72,0,0-3.97,1.13-8.44,1.13s-8.68-1.13-8.68-1.13c-.43,0-.78.32-.78.72v2.87c0,.4.35.72.78.72,0,0,3.62,1.13,8.44,1.13Z"/>
        <path class="cls-1" d="M24.86,20.15s-3.97,1.13-8.44,1.13-8.68-1.13-8.68-1.13c-.43,0-.78.32-.78.72v2.87c0,.4.35.72.78.72,0,0,3.62,1.13,8.44,1.13s8.68-1.13,8.68-1.13c.43,0,.78-.32.78-.72v-2.87c0-.4-.35-.72-.78-.72Z"/>
        <path class="cls-1" d="M7.5,12.23s3.62,1.13,8.44,1.13,8.68-1.13,8.68-1.13c.43,0,.78-.32.78-.72v-2.87c0-.4-.35-.72-.78-.72,0,0-3.97,1.13-8.44,1.13s-8.68-1.13-8.68-1.13c-.43,0-.78.32-.78.72v2.87c0,.4.35.72.78.72Z"/>
      </g>
      <g>
        <path class="cls-2" d="M16.26,9.85s-6.29,1.29-6.29,4.1c0,7.34,6.29,10.42,6.29,10.42,0,0,6.29-3.08,6.29-10.42,0-2.82-6.29-4.1-6.29-4.1ZM16.19,21.19s-3.68-1.8-3.68-6.1c0-1.65,3.68-2.4,3.68-2.4,0,0,3.68.75,3.68,2.4,0,4.3-3.68,6.1-3.68,6.1Z"/>
        <path class="cls-4" d="M16.19,12.69s-3.68.75-3.68,2.4c0,4.3,3.68,6.1,3.68,6.1,0,0,3.68-1.8,3.68-6.1,0-1.65-3.68-2.4-3.68-2.4Z"/>
      </g>
    </g>
  </g>
</svg>
