<?xml version="1.0" encoding="UTF-8"?>
<svg xmlns="http://www.w3.org/2000/svg" viewBox="0 0 32 32">
  <defs>
    <style>
      .cls-1 {
        fill-rule: evenodd;
      }

      .cls-1, .cls-2 {
        fill: rgba(255, 255, 255, .6);
      }

      .cls-3 {
        isolation: isolate;
      }

      .cls-4 {
        fill: #fff;
      }

      .cls-5 {
        fill: #1068c9;
      }

      .cls-2 {
        mix-blend-mode: screen;
      }
    </style>
  </defs>
  <g class="cls-3">
    <g id="Ebene_2">
      <g id="Ebene_1-2" data-name="Ebene_1">
        <circle id="Oval" class="cls-5" cx="16" cy="16" r="16"/>
        <g>
          <path class="cls-1" d="M15.94,19.47c4.82,0,8.68-1.13,8.68-1.13.43,0,.78-.32.78-.72v-2.87c0-.4-.35-.72-.78-.72,0,0-3.97,1.13-8.44,1.13s-8.68-1.13-8.68-1.13c-.43,0-.78.32-.78.72v2.87c0,.4.35.72.78.72,0,0,3.62,1.13,8.44,1.13Z"/>
          <path class="cls-1" d="M24.86,20.15s-3.97,1.13-8.44,1.13-8.68-1.13-8.68-1.13c-.43,0-.78.32-.78.72v2.87c0,.4.35.72.78.72,0,0,3.62,1.13,8.44,1.13s8.68-1.13,8.68-1.13c.43,0,.78-.32.78-.72v-2.87c0-.4-.35-.72-.78-.72Z"/>
          <path class="cls-1" d="M7.5,12.23s3.62,1.13,8.44,1.13,8.68-1.13,8.68-1.13c.43,0,.78-.32.78-.72v-2.87c0-.4-.35-.72-.78-.72,0,0-3.97,1.13-8.44,1.13s-8.68-1.13-8.68-1.13c-.43,0-.78.32-.78.72v2.87c0,.4.35.72.78.72Z"/>
        </g>
        <g>
          <path class="cls-2" d="M16.26,9.85s-6.29,1.29-6.29,4.1c0,7.34,6.29,10.42,6.29,10.42,0,0,6.29-3.08,6.29-10.42,0-2.82-6.29-4.1-6.29-4.1ZM16.19,21.19s-3.68-1.8-3.68-6.1c0-1.65,3.68-2.4,3.68-2.4,0,0,3.68.75,3.68,2.4,0,4.3-3.68,6.1-3.68,6.1Z"/>
          <path class="cls-4" d="M16.19,12.69s-3.68.75-3.68,2.4c0,4.3,3.68,6.1,3.68,6.1,0,0,3.68-1.8,3.68-6.1,0-1.65-3.68-2.4-3.68-2.4Z"/>
        </g>
      </g>
    </g>
  </g>
</svg>
